<mxfile host="app.diagrams.net" modified="2023-11-08T03:06:41.919Z" agent="Mozilla/5.0 (Windows NT 10.0; Win64; x64) AppleWebKit/537.36 (KHTML, like Gecko) Chrome/118.0.0.0 Safari/537.36" version="22.0.8" etag="7ziM1jU6mnZmzLhix2Hn" type="github">
  <diagram name="Page-1" id="nSesKAxz9N0W7pQih8Ck">
    <mxGraphModel>
      <root>
        <mxCell id="0" />
        <mxCell id="1" parent="0" />
      </root>
    </mxGraphModel>
  </diagram>
</mxfile>
